<?xml version="1.0" encoding="UTF-8" standalone="no"?><svg xmlns="http://www.w3.org/2000/svg" xmlns:xlink="http://www.w3.org/1999/xlink" contentStyleType="text/css" height="453px" preserveAspectRatio="none" style="width:1003px;height:453px;background:#FFFFFF;" version="1.1" viewBox="0 0 1003 453" width="1003px" zoomAndPan="magnify"><defs/><g><g id="elem_TrainGame"><rect fill="#F1F1F1" height="36.2969" style="stroke:#181818;stroke-width:0.5;" width="92" x="592.5" y="7"/><text fill="#000000" font-family="sans-serif" font-size="14" lengthAdjust="spacing" textLength="78" x="599.5" y="21.9951">TrainGame</text><line style="stroke:#181818;stroke-width:0.5;" x1="593.5" x2="683.5" y1="27.2969" y2="27.2969"/></g><g id="elem_Train"><rect fill="#F1F1F1" height="36.2969" style="stroke:#181818;stroke-width:0.5;" width="50" x="593.5" y="104"/><text fill="#000000" font-family="sans-serif" font-size="14" lengthAdjust="spacing" textLength="36" x="600.5" y="118.9951">Train</text><line style="stroke:#181818;stroke-width:0.5;" x1="594.5" x2="642.5" y1="124.2969" y2="124.2969"/></g><g id="elem_TrainGoal"><rect fill="#F1F1F1" height="36.2969" style="stroke:#181818;stroke-width:0.5;" width="82" x="318.5" y="217"/><text fill="#000000" font-family="sans-serif" font-size="14" lengthAdjust="spacing" textLength="68" x="325.5" y="231.9951">TrainGoal</text><line style="stroke:#181818;stroke-width:0.5;" x1="319.5" x2="399.5" y1="237.2969" y2="237.2969"/></g><g id="elem_accelerate"><rect fill="#F1F1F1" height="36.2969" style="stroke:#181818;stroke-width:0.5;" width="90" x="181.5" y="314"/><text fill="#000000" font-family="sans-serif" font-size="14" lengthAdjust="spacing" textLength="76" x="188.5" y="328.9951">accelerate</text><line style="stroke:#181818;stroke-width:0.5;" x1="182.5" x2="270.5" y1="334.2969" y2="334.2969"/></g><g id="elem_brake"><rect fill="#F1F1F1" height="36.2969" style="stroke:#181818;stroke-width:0.5;" width="56" x="306.5" y="314"/><text fill="#000000" font-family="sans-serif" font-size="14" lengthAdjust="spacing" textLength="42" x="313.5" y="328.9951">brake</text><line style="stroke:#181818;stroke-width:0.5;" x1="307.5" x2="361.5" y1="334.2969" y2="334.2969"/></g><g id="elem_wagon"><rect fill="#F1F1F1" height="36.2969" style="stroke:#181818;stroke-width:0.5;" width="60" x="653.5" y="217"/><text fill="#000000" font-family="sans-serif" font-size="14" lengthAdjust="spacing" textLength="46" x="660.5" y="231.9951">wagon</text><line style="stroke:#181818;stroke-width:0.5;" x1="654.5" x2="712.5" y1="237.2969" y2="237.2969"/></g><g id="elem_mainWagon"><rect fill="#F1F1F1" height="36.2969" style="stroke:#181818;stroke-width:0.5;" width="98" x="520.5" y="217"/><text fill="#000000" font-family="sans-serif" font-size="14" lengthAdjust="spacing" textLength="84" x="527.5" y="231.9951">mainWagon</text><line style="stroke:#181818;stroke-width:0.5;" x1="521.5" x2="617.5" y1="237.2969" y2="237.2969"/></g><g id="elem_passengerWagon"><rect fill="#F1F1F1" height="36.2969" style="stroke:#181818;stroke-width:0.5;" width="137" x="668" y="314"/><text fill="#000000" font-family="sans-serif" font-size="14" lengthAdjust="spacing" textLength="123" x="675" y="328.9951">passengerWagon</text><line style="stroke:#181818;stroke-width:0.5;" x1="669" x2="804" y1="334.2969" y2="334.2969"/></g><g id="elem_payloadWagon"><rect fill="#F1F1F1" height="36.2969" style="stroke:#181818;stroke-width:0.5;" width="119" x="840" y="314"/><text fill="#000000" font-family="sans-serif" font-size="14" lengthAdjust="spacing" textLength="105" x="847" y="328.9951">payloadWagon</text><line style="stroke:#181818;stroke-width:0.5;" x1="841" x2="958" y1="334.2969" y2="334.2969"/></g><g id="elem_weight"><rect fill="#F1F1F1" height="36.2969" style="stroke:#181818;stroke-width:0.5;" width="63" x="749" y="217"/><text fill="#000000" font-family="sans-serif" font-size="14" lengthAdjust="spacing" textLength="49" x="756" y="231.9951">weight</text><line style="stroke:#181818;stroke-width:0.5;" x1="750" x2="811" y1="237.2969" y2="237.2969"/></g><g id="elem_Human"><rect fill="#F1F1F1" height="36.2969" style="stroke:#181818;stroke-width:0.5;" width="63" x="372" y="7"/><text fill="#000000" font-family="sans-serif" font-size="14" lengthAdjust="spacing" textLength="49" x="379" y="21.9951">Human</text><line style="stroke:#181818;stroke-width:0.5;" x1="373" x2="434" y1="27.2969" y2="27.2969"/></g><g id="elem_Computer"><rect fill="#F1F1F1" height="36.2969" style="stroke:#181818;stroke-width:0.5;" width="87" x="470" y="7"/><text fill="#000000" font-family="sans-serif" font-size="14" lengthAdjust="spacing" textLength="73" x="477" y="21.9951">Computer</text><line style="stroke:#181818;stroke-width:0.5;" x1="471" x2="556" y1="27.2969" y2="27.2969"/></g><g id="elem_mainWagonGoals"><rect fill="#F1F1F1" height="36.2969" style="stroke:#181818;stroke-width:0.5;" width="137" x="398" y="314"/><text fill="#000000" font-family="sans-serif" font-size="14" lengthAdjust="spacing" textLength="123" x="405" y="328.9951">mainWagonGoals</text><line style="stroke:#181818;stroke-width:0.5;" x1="399" x2="534" y1="334.2969" y2="334.2969"/></g><g id="elem_motorPower"><rect fill="#F1F1F1" height="36.2969" style="stroke:#181818;stroke-width:0.5;" width="103" x="415" y="411"/><text fill="#000000" font-family="sans-serif" font-size="14" lengthAdjust="spacing" textLength="89" x="422" y="425.9951">motorPower</text><line style="stroke:#181818;stroke-width:0.5;" x1="416" x2="517" y1="431.2969" y2="431.2969"/></g><g id="elem_Player"><rect fill="#F1F1F1" height="36.2969" style="stroke:#181818;stroke-width:0.5;" width="58" x="484.5" y="104"/><text fill="#000000" font-family="sans-serif" font-size="14" lengthAdjust="spacing" textLength="44" x="491.5" y="118.9951">Player</text><line style="stroke:#181818;stroke-width:0.5;" x1="485.5" x2="541.5" y1="124.2969" y2="124.2969"/></g><g id="elem_PlayerGoal"><rect fill="#F1F1F1" height="36.2969" style="stroke:#181818;stroke-width:0.5;" width="90" x="129.5" y="104"/><text fill="#000000" font-family="sans-serif" font-size="14" lengthAdjust="spacing" textLength="76" x="136.5" y="118.9951">PlayerGoal</text><line style="stroke:#181818;stroke-width:0.5;" x1="130.5" x2="218.5" y1="124.2969" y2="124.2969"/></g><g id="elem_ShortTime"><rect fill="#F1F1F1" height="36.2969" style="stroke:#181818;stroke-width:0.5;" width="90" x="193.5" y="217"/><text fill="#000000" font-family="sans-serif" font-size="14" lengthAdjust="spacing" textLength="76" x="200.5" y="231.9951">ShortTime</text><line style="stroke:#181818;stroke-width:0.5;" x1="194.5" x2="282.5" y1="237.2969" y2="237.2969"/></g><g id="elem_forward"><rect fill="#F1F1F1" height="36.2969" style="stroke:#181818;stroke-width:0.5;" width="69" x="7" y="217"/><text fill="#000000" font-family="sans-serif" font-size="14" lengthAdjust="spacing" textLength="55" x="14" y="231.9951">forward</text><line style="stroke:#181818;stroke-width:0.5;" x1="8" x2="75" y1="237.2969" y2="237.2969"/></g><g id="elem_stop"><rect fill="#F1F1F1" height="36.2969" style="stroke:#181818;stroke-width:0.5;" width="47" x="111" y="217"/><text fill="#000000" font-family="sans-serif" font-size="14" lengthAdjust="spacing" textLength="33" x="118" y="231.9951">stop</text><line style="stroke:#181818;stroke-width:0.5;" x1="112" x2="157" y1="237.2969" y2="237.2969"/></g><g id="elem_track"><rect fill="#F1F1F1" height="36.2969" style="stroke:#181818;stroke-width:0.5;" width="52" x="678.5" y="104"/><text fill="#000000" font-family="sans-serif" font-size="14" lengthAdjust="spacing" textLength="38" x="685.5" y="118.9951">track</text><line style="stroke:#181818;stroke-width:0.5;" x1="679.5" x2="729.5" y1="124.2969" y2="124.2969"/></g><g id="elem_size"><rect fill="#F1F1F1" height="36.2969" style="stroke:#181818;stroke-width:0.5;" width="42" x="955.5" y="217"/><text fill="#000000" font-family="sans-serif" font-size="14" lengthAdjust="spacing" textLength="28" x="962.5" y="231.9951">size</text><line style="stroke:#181818;stroke-width:0.5;" x1="956.5" x2="996.5" y1="237.2969" y2="237.2969"/></g><g id="elem_engine"><rect fill="#F1F1F1" height="36.2969" style="stroke:#181818;stroke-width:0.5;" width="63" x="570" y="314"/><text fill="#000000" font-family="sans-serif" font-size="14" lengthAdjust="spacing" textLength="49" x="577" y="328.9951">engine</text><line style="stroke:#181818;stroke-width:0.5;" x1="571" x2="632" y1="334.2969" y2="334.2969"/></g><g id="elem_trackGoals"><rect fill="#F1F1F1" height="36.2969" style="stroke:#181818;stroke-width:0.5;" width="91" x="766" y="104"/><text fill="#000000" font-family="sans-serif" font-size="14" lengthAdjust="spacing" textLength="77" x="773" y="118.9951">trackGoals</text><line style="stroke:#181818;stroke-width:0.5;" x1="767" x2="856" y1="124.2969" y2="124.2969"/></g><g id="elem_paint"><rect fill="#F1F1F1" height="36.2969" style="stroke:#181818;stroke-width:0.5;" width="52" x="892.5" y="104"/><text fill="#000000" font-family="sans-serif" font-size="14" lengthAdjust="spacing" textLength="38" x="899.5" y="118.9951">paint</text><line style="stroke:#181818;stroke-width:0.5;" x1="893.5" x2="943.5" y1="124.2969" y2="124.2969"/></g><g id="elem_position"><rect fill="#F1F1F1" height="36.2969" style="stroke:#181818;stroke-width:0.5;" width="73" x="847" y="217"/><text fill="#000000" font-family="sans-serif" font-size="14" lengthAdjust="spacing" textLength="59" x="854" y="231.9951">position</text><line style="stroke:#181818;stroke-width:0.5;" x1="848" x2="919" y1="237.2969" y2="237.2969"/></g><g id="elem_managePosition"><rect fill="#F1F1F1" height="36.2969" style="stroke:#181818;stroke-width:0.5;" width="129" x="295" y="104"/><text fill="#000000" font-family="sans-serif" font-size="14" lengthAdjust="spacing" textLength="115" x="302" y="118.9951">managePosition</text><line style="stroke:#181818;stroke-width:0.5;" x1="296" x2="423" y1="124.2969" y2="124.2969"/></g><!--reverse link track to size--><g id="link_track_size"><path codeLine="39" d="M742.929,138.127 C789.227,156.439 869.3,188.385 937.5,217 C943.357,219.458 949.681,222.183 955.496,224.718 " fill="none" id="track-backto-size" style="stroke:#181818;stroke-width:1.0;"/><polygon fill="#181818" points="730.804,133.338,734.9148,139.2626,741.9648,137.7467,737.854,131.8221,730.804,133.338" style="stroke:#181818;stroke-width:1.0;"/></g><!--reverse link track to trackGoals--><g id="link_track_trackGoals"><path codeLine="41" d="M743.948,122 C751.235,122 758.522,122 765.809,122 " fill="none" id="track-backto-trackGoals" style="stroke:#181818;stroke-width:1.0;"/><polygon fill="none" points="730.832,122,736.832,126,742.832,122,736.832,118,730.832,122" style="stroke:#181818;stroke-width:1.0;"/></g><!--reverse link trackGoals to paint--><g id="link_trackGoals_paint"><path codeLine="42" d="M877.317,122 C882.244,122 887.172,122 892.099,122 " fill="none" id="trackGoals-backto-paint" style="stroke:#181818;stroke-width:1.0;"/><polygon fill="none" points="877.059,129,857.059,122,877.059,115,877.059,129" style="stroke:#181818;stroke-width:1.0;"/></g><!--link managePosition to TrainGoal--><g id="link_managePosition_TrainGoal"><path codeLine="43" d="M359.5,140.344 C359.5,155.332 359.5,177.516 359.5,196.532 " fill="none" id="managePosition-to-TrainGoal" style="stroke:#181818;stroke-width:1.0;"/><polygon fill="none" points="366.5,196.778,359.5,216.778,352.5,196.778,366.5,196.778" style="stroke:#181818;stroke-width:1.0;"/></g><!--reverse link TrainGame to Player--><g id="link_TrainGame_Player"><path codeLine="45" d="M605.362,51.185 C583.446,67.841 555.297,89.234 535.968,103.924 " fill="none" id="TrainGame-backto-Player" style="stroke:#181818;stroke-width:1.0;"/><polygon fill="#181818" points="615.863,43.204,608.6657,43.6497,606.3089,50.4648,613.5062,50.0191,615.863,43.204" style="stroke:#181818;stroke-width:1.0;"/></g><!--reverse link TrainGame to track--><g id="link_TrainGame_track"><path codeLine="46" d="M658.197,54.351 C669.338,70.389 682.91,89.924 692.471,103.686 " fill="none" id="TrainGame-backto-track" style="stroke:#181818;stroke-width:1.0;"/><polygon fill="#181818" points="650.605,43.424,650.7435,50.6338,657.4519,53.2789,657.3134,46.0692,650.605,43.424" style="stroke:#181818;stroke-width:1.0;"/></g><!--reverse link TrainGame to Train--><g id="link_TrainGame_Train"><path codeLine="47" d="M632.135,56.235 C628.837,71.897 624.93,90.458 622.145,103.686 " fill="none" id="TrainGame-backto-Train" style="stroke:#181818;stroke-width:1.0;"/><polygon fill="#181818" points="634.832,43.424,629.6816,48.4711,632.3595,55.1665,637.5099,50.1194,634.832,43.424" style="stroke:#181818;stroke-width:1.0;"/></g><!--link Player to Train--><g id="link_Player_Train"><path codeLine="50" d="M542.621,122 C557.8,122 572.979,122 588.158,122 " fill="none" id="Player-to-Train" style="stroke:#181818;stroke-width:1.0;"/><polygon fill="#181818" points="593.306,122,584.306,118,588.306,122,584.306,126,593.306,122" style="stroke:#181818;stroke-width:1.0;"/></g><!--reverse link Train to track--><g id="link_Train_track"><path codeLine="51" d="M648.843,122 C658.686,122 668.53,122 678.373,122 " fill="none" id="Train-backto-track" style="stroke:#181818;stroke-width:1.0;"/><polygon fill="#181818" points="643.695,122,652.695,126,648.695,122,652.695,118,643.695,122" style="stroke:#181818;stroke-width:1.0;"/></g><!--link PlayerGoal to Player--><g id="link_PlayerGoal_Player"><path codeLine="54" d="M209.002,103.988 C232.527,92.754 264.779,79.354 295,73.5 C351.287,62.597 368.425,59.41 424,73.5 C442.566,78.207 461.452,87.621 477.06,96.912 " fill="none" id="PlayerGoal-to-Player" style="stroke:#181818;stroke-width:1.0;"/><polygon fill="none" points="488.297,103.914,485.3199,97.3461,478.1122,97.5681,481.0893,104.136,488.297,103.914" style="stroke:#181818;stroke-width:1.0;"/></g><!--reverse link PlayerGoal to ShortTime--><g id="link_PlayerGoal_ShortTime"><path codeLine="55" d="M194.596,157.854 C205.906,177.469 219.529,201.098 228.57,216.778 " fill="none" id="PlayerGoal-backto-ShortTime" style="stroke:#181818;stroke-width:1.0;"/><polygon fill="none" points="188.426,161.167,184.5,140.344,200.554,154.174,188.426,161.167" style="stroke:#181818;stroke-width:1.0;"/></g><!--reverse link PlayerGoal to forward--><g id="link_PlayerGoal_forward"><path codeLine="56" d="M138.431,153.102 C113.995,173.497 82.5685,199.725 62.2322,216.697 " fill="none" id="PlayerGoal-backto-forward" style="stroke:#181818;stroke-width:1.0;"/><polygon fill="none" points="134.17,147.541,154.01,140.1,143.141,158.29,134.17,147.541" style="stroke:#181818;stroke-width:1.0;"/></g><!--reverse link PlayerGoal to stop--><g id="link_PlayerGoal_stop"><path codeLine="57" d="M161.388,159.386 C154.432,178.688 146.21,201.504 140.706,216.778 " fill="none" id="PlayerGoal-backto-stop" style="stroke:#181818;stroke-width:1.0;"/><polygon fill="none" points="154.884,156.786,168.25,140.344,168.055,161.533,154.884,156.786" style="stroke:#181818;stroke-width:1.0;"/></g><!--reverse link Train to TrainGoal--><g id="link_Train_TrainGoal"><path codeLine="61" d="M581.121,139.02 C532.718,159.764 448.71,195.767 399.199,216.986 " fill="none" id="Train-backto-TrainGoal" style="stroke:#181818;stroke-width:1.0;"/><polygon fill="none" points="593.194,133.845,586.1034,132.5322,582.1645,138.5725,589.2551,139.8853,593.194,133.845" style="stroke:#181818;stroke-width:1.0;"/></g><!--reverse link Train to wagon--><g id="link_Train_wagon"><path codeLine="62" d="M635.253,151.609 C647.33,172.233 663.234,199.392 673.415,216.778 " fill="none" id="Train-backto-wagon" style="stroke:#181818;stroke-width:1.0;"/><polygon fill="#181818" points="628.656,140.344,628.2358,147.5428,634.7193,150.6995,635.1395,143.5007,628.656,140.344" style="stroke:#181818;stroke-width:1.0;"/><text fill="#000000" font-family="sans-serif" font-size="13" lengthAdjust="spacing" textLength="23" x="655.5" y="183.0669">0..*</text></g><!--reverse link Train to position--><g id="link_Train_position"><path codeLine="63" d="M655.903,138.667 C706.592,159.899 796.531,197.571 846.836,218.642 " fill="none" id="Train-backto-position" style="stroke:#181818;stroke-width:1.0;"/><polygon fill="#181818" points="643.909,133.643,647.8975,139.6507,654.977,138.2796,650.9886,132.272,643.909,133.643" style="stroke:#181818;stroke-width:1.0;"/></g><!--reverse link Train to mainWagon--><g id="link_Train_mainWagon"><path codeLine="64" d="M605.486,152.48 C596.431,172.993 584.67,199.635 577.102,216.778 " fill="none" id="Train-backto-mainWagon" style="stroke:#181818;stroke-width:1.0;"/><polygon fill="#181818" points="610.844,140.344,604.7616,144.2176,605.9979,151.3219,612.0803,147.4483,610.844,140.344" style="stroke:#181818;stroke-width:1.0;"/><text fill="#000000" font-family="sans-serif" font-size="13" lengthAdjust="spacing" textLength="8" x="598.5" y="183.0669">1</text></g><!--reverse link TrainGoal to accelerate--><g id="link_TrainGoal_accelerate"><path codeLine="65" d="M319.03,264.907 C296.596,280.931 269.47,300.307 250.406,313.924 " fill="none" id="TrainGoal-backto-accelerate" style="stroke:#181818;stroke-width:1.0;"/><polygon fill="none" points="315.071,259.132,335.415,253.204,323.209,270.525,315.071,259.132" style="stroke:#181818;stroke-width:1.0;"/></g><!--reverse link TrainGoal to brake--><g id="link_TrainGoal_brake"><path codeLine="66" d="M349.755,273.03 C346.068,287.04 342.045,302.329 339.056,313.686 " fill="none" id="TrainGoal-backto-brake" style="stroke:#181818;stroke-width:1.0;"/><polygon fill="none" points="343.055,270.984,354.915,253.424,356.594,274.547,343.055,270.984" style="stroke:#181818;stroke-width:1.0;"/></g><!--link mainWagon to wagon--><g id="link_mainWagon_wagon"><path codeLine="68" d="M618.93,235 C623.699,235 628.468,235 633.238,235 " fill="none" id="mainWagon-to-wagon" style="stroke:#181818;stroke-width:1.0;"/><polygon fill="none" points="633.485,228,653.485,235,633.485,242,633.485,228" style="stroke:#181818;stroke-width:1.0;"/></g><!--reverse link wagon to weight--><g id="link_wagon_weight"><path codeLine="70" d="M727,235 C734.327,235 741.653,235 748.98,235 " fill="none" id="wagon-backto-weight" style="stroke:#181818;stroke-width:1.0;"/><polygon fill="#181818" points="713.812,235,719.812,239,725.812,235,719.812,231,713.812,235" style="stroke:#181818;stroke-width:1.0;"/></g><!--reverse link wagon to passengerWagon--><g id="link_wagon_passengerWagon"><path codeLine="72" d="M703.061,271.061 C711.167,285.592 720.206,301.794 726.841,313.686 " fill="none" id="wagon-backto-passengerWagon" style="stroke:#181818;stroke-width:1.0;"/><polygon fill="none" points="696.852,274.301,693.221,253.424,709.078,267.48,696.852,274.301" style="stroke:#181818;stroke-width:1.0;"/></g><!--reverse link wagon to payloadWagon--><g id="link_wagon_payloadWagon"><path codeLine="73" d="M732.04,257.349 C770.86,274.422 824.568,298.044 860.595,313.889 " fill="none" id="wagon-backto-payloadWagon" style="stroke:#181818;stroke-width:1.0;"/><polygon fill="none" points="729.023,263.669,713.534,249.209,734.66,250.854,729.023,263.669" style="stroke:#181818;stroke-width:1.0;"/></g><!--reverse link mainWagon to engine--><g id="link_mainWagon_engine"><path codeLine="75" d="M579.525,265.761 C584.834,281.522 591.167,300.324 595.668,313.686 " fill="none" id="mainWagon-backto-engine" style="stroke:#181818;stroke-width:1.0;"/><polygon fill="#181818" points="575.369,253.424,573.4936,260.387,579.1997,264.7961,581.0751,257.8332,575.369,253.424" style="stroke:#181818;stroke-width:1.0;"/></g><!--reverse link mainWagon to mainWagonGoals--><g id="link_mainWagon_mainWagonGoals"><path codeLine="76" d="M540.769,262.499 C523.028,278.863 500.773,299.389 485.272,313.686 " fill="none" id="mainWagon-backto-mainWagonGoals" style="stroke:#181818;stroke-width:1.0;"/><polygon fill="none" points="550.608,253.424,543.4857,254.5519,541.7874,261.5602,548.9098,260.4323,550.608,253.424" style="stroke:#181818;stroke-width:1.0;"/></g><!--reverse link mainWagonGoals to motorPower--><g id="link_mainWagonGoals_motorPower"><path codeLine="77" d="M466.5,370.5252 C466.5,384.3993 466.5,399.4623 466.5,410.686 " fill="none" id="mainWagonGoals-backto-motorPower" style="stroke:#181818;stroke-width:1.0;"/><polygon fill="none" points="459.5,370.4245,466.5,350.4245,473.5,370.4244,459.5,370.4245" style="stroke:#181818;stroke-width:1.0;"/></g><!--link Human to Player--><g id="link_Human_Player"><path codeLine="79" d="M423.42,43.204 C438.761,56.453 460.352,75.099 478.55,90.816 " fill="none" id="Human-to-Player" style="stroke:#181818;stroke-width:1.0;"/><polygon fill="none" points="483.167,85.554,493.728,103.924,474.016,96.15,483.167,85.554" style="stroke:#181818;stroke-width:1.0;"/></g><!--link Computer to Player--><g id="link_Computer_Player"><path codeLine="80" d="M513.5,43.424 C513.5,54.673 513.5,69.745 513.5,83.611 " fill="none" id="Computer-to-Player" style="stroke:#181818;stroke-width:1.0;"/><polygon fill="none" points="520.5,83.686,513.5,103.686,506.5,83.686,520.5,83.686" style="stroke:#181818;stroke-width:1.0;"/></g><!--SRC=[RPEvRiCm341tVONc00hQDKEM3kaOe0KwCuxYgB5DGrPWfEZ7rn9rK6ucWO_YJUBfMpTEVbemmm5wBGGoKWa7X2u1Q1hTQGjEouHE5cv5cg75RDulrbySZ31DUcYrNT57Xt2ksAnDUtKvg_Tx3rdtXlruTzgAVt5ygbF1wD0USVO_4pjsy62M98OA4_guedMVPcb911UqCzXp4YU7O_xiB3Ith34_fOzBcMRGzSUGdYnbcy5b0IVZ36_T0Aq-9Yg2lTme5QEGZChwDYdcNWItKdNwujJllWfSEvNAwyk8HLw642TsgePKRyreOuGW0nbJYfvZefJEVlqNYVCnvFPBTHzzWamN9_54uuVo18jOr198iKg9-Tp3kkvUjjiDWtaM1UKDsxqATWCnOl5Cnx36KeZi8FLdqTEjYF0iKU8eq-RNjv9yaWs_c5h30lcyunOMYBmOMfXo9idL-fx2zT6wnAr89yZX7m00]--></g></svg>